<?xml version="1.0" encoding="UTF-8" standalone="no"?>
<!DOCTYPE svg PUBLIC "-//W3C//DTD SVG 1.1//EN" "http://www.w3.org/Graphics/SVG/1.1/DTD/svg11.dtd">
<!-- Created with Vectornator (http://vectornator.io/) -->
<svg height="100%" stroke-miterlimit="10" style="fill-rule:nonzero;clip-rule:evenodd;stroke-linecap:round;stroke-linejoin:round;" version="1.1" viewBox="0 0 3370.82 2384.24" width="100%" xml:space="preserve" xmlns="http://www.w3.org/2000/svg" xmlns:vectornator="http://vectornator.io" xmlns:xlink="http://www.w3.org/1999/xlink">
<defs/>
<g id="Слой-1" vectornator:layerName="Слой 1">
<path d="M682.062 373.644L935.315 1060.97L1188.57 1748.29L680.622 1747.75L172.675 1747.22L427.369 1060.43L682.062 373.644Z" fill="#000000" fill-rule="nonzero" opacity="1" stroke="none" vectornator:layerName="Звезда 1"/>
<path d="M681.714 622.121L880.358 1143.33L1079 1664.54L680.622 1664.13L282.241 1663.71L481.978 1142.91L681.714 622.121Z" fill="#ffffff" fill-rule="nonzero" opacity="1" stroke="none" vectornator:layerName="Звезда 2"/>
<path d="M680.825 334.727L723.17 431.747L765.515 528.766L680.622 528.677L595.728 528.588L638.277 431.658L680.825 334.727Z" fill="#ffffff" fill-rule="nonzero" opacity="1" stroke="none" vectornator:layerName="Звезда 3"/>
<path d="M1079 727.86L680.622 1480.31" fill="none" opacity="1" stroke="#000000" stroke-linecap="butt" stroke-linejoin="round" stroke-width="40" vectornator:layerName="Линия 1"/>
<path d="M929.642 873.444C929.642 829.085 963.078 793.125 1004.32 793.125C1045.57 793.125 1079 829.085 1079 873.444C1079 917.802 1045.57 953.762 1004.32 953.762C963.078 953.762 929.642 917.802 929.642 873.444Z" fill="#000000" fill-rule="nonzero" opacity="1" stroke="#000000" stroke-linecap="butt" stroke-linejoin="round" stroke-width="40" vectornator:layerName="Овал 1"/>
<path d="M653.995 1480.31C653.995 1462.7 665.916 1448.43 680.622 1448.43C695.327 1448.43 707.248 1462.7 707.248 1480.31C707.248 1497.91 695.327 1512.18 680.622 1512.18C665.916 1512.18 653.995 1497.91 653.995 1480.31Z" fill="#000000" fill-rule="nonzero" opacity="1" stroke="#000000" stroke-linecap="butt" stroke-linejoin="round" stroke-width="40" vectornator:layerName="Овал 2"/>
<path d="M282.241 1486.2L1079 1480.31" fill="none" opacity="1" stroke="#000000" stroke-linecap="butt" stroke-linejoin="round" stroke-width="15" vectornator:layerName="Линия 2"/>
<g fill="#000000" opacity="1" stroke="none" vectornator:layerName="Текст 1">
<path d="M401.205 1614.18L393.525 1614.18L393.525 1541.45L403.08 1541.45L419.857 1589.36L436.634 1541.45L445.914 1541.45L445.914 1614.18L437.182 1614.18L437.182 1567.83L437.411 1561.43L437.182 1561.43L435.125 1567.83L423.88 1599.65L414.417 1599.65L403.034 1567.83L401.205 1561.43L400.931 1561.43L401.205 1567.83L401.205 1614.18Z"/>
<path d="M497.297 1606.18L497.297 1614.18L458.028 1614.18L458.028 1541.45L496.565 1541.45L496.565 1548.77L467.491 1548.77L467.491 1573.45L493.64 1573.45L493.64 1580.72L467.491 1580.72L467.491 1606.18L497.297 1606.18Z"/>
<path d="M530.165 1614.18L530.165 1549.45L508.36 1549.45L508.36 1541.45L561.48 1541.45L561.48 1549.45L539.628 1549.45L539.628 1614.18L530.165 1614.18Z"/>
<path d="M580.177 1583.28L580.177 1614.18L570.714 1614.18L570.714 1541.45L590.142 1541.45C596.481 1541.45 601.152 1542.1 604.154 1543.4C607.156 1544.69 609.48 1546.65 611.125 1549.27C612.771 1551.89 613.594 1554.71 613.594 1557.73C613.594 1560.56 613.045 1563.4 611.948 1566.23C610.851 1569.06 609.342 1571.6 607.422 1573.84C605.502 1576.08 602.729 1578.21 599.102 1580.22L620.177 1614.18L608.885 1614.18L589.64 1583.28L580.177 1583.28ZM580.177 1575.97L593.434 1575.97C596.421 1574.35 598.638 1572.7 600.085 1571.01C601.533 1569.32 602.63 1567.52 603.377 1565.61C604.123 1563.71 604.497 1561.81 604.497 1559.92C604.497 1556.51 603.255 1553.8 600.771 1551.78C598.287 1549.77 593.784 1548.77 587.262 1548.77L580.177 1548.77L580.177 1575.97Z"/>
<path d="M650.12 1616.38C641.861 1616.38 635.552 1612.9 631.194 1605.96C626.836 1599.01 624.657 1589.62 624.657 1577.8C624.657 1566.03 626.836 1556.67 631.194 1549.7C635.552 1542.74 641.861 1539.26 650.12 1539.26C658.379 1539.26 664.68 1542.74 669.022 1549.7C673.365 1556.67 675.537 1566.03 675.537 1577.8C675.537 1589.62 673.365 1599.01 669.022 1605.96C664.68 1612.9 658.379 1616.38 650.12 1616.38ZM650.12 1609.06C654.661 1609.06 658.455 1606.48 661.502 1601.32C664.55 1596.15 666.074 1588.31 666.074 1577.8C666.074 1567.31 664.55 1559.48 661.502 1554.3C658.455 1549.12 654.661 1546.53 650.12 1546.53C645.548 1546.53 641.739 1549.12 638.691 1554.3C635.643 1559.48 634.12 1567.31 634.12 1577.8C634.12 1588.31 635.643 1596.15 638.691 1601.32C641.739 1606.48 645.548 1609.06 650.12 1609.06Z"/>
<path d="M693.548 1614.18L684.817 1614.18L684.817 1541.45L693.365 1541.45L719.102 1589.86L721.891 1597.09L722.12 1597.09L721.891 1589.86L721.891 1541.45L730.622 1541.45L730.622 1614.18L721.891 1614.18L696.885 1566.55L693.365 1558.92L693.548 1566.46L693.548 1614.18Z"/>
<path d="M765.32 1616.38C757.061 1616.38 750.752 1612.9 746.394 1605.96C742.036 1599.01 739.857 1589.62 739.857 1577.8C739.857 1566.03 742.036 1556.67 746.394 1549.7C750.752 1542.74 757.061 1539.26 765.32 1539.26C773.579 1539.26 779.88 1542.74 784.222 1549.7C788.565 1556.67 790.737 1566.03 790.737 1577.8C790.737 1589.62 788.565 1599.01 784.222 1605.96C779.88 1612.9 773.579 1616.38 765.32 1616.38ZM765.32 1609.06C769.861 1609.06 773.655 1606.48 776.702 1601.32C779.75 1596.15 781.274 1588.31 781.274 1577.8C781.274 1567.31 779.75 1559.48 776.702 1554.3C773.655 1549.12 769.861 1546.53 765.32 1546.53C760.748 1546.53 756.939 1549.12 753.891 1554.3C750.843 1559.48 749.32 1567.31 749.32 1577.8C749.32 1588.31 750.843 1596.15 753.891 1601.32C756.939 1606.48 760.748 1609.06 765.32 1609.06Z"/>
<path d="M804.405 1614.18L796.725 1614.18L796.725 1541.45L806.28 1541.45L823.057 1589.36L839.834 1541.45L849.114 1541.45L849.114 1614.18L840.382 1614.18L840.382 1567.83L840.611 1561.43L840.382 1561.43L838.325 1567.83L827.08 1599.65L817.617 1599.65L806.234 1567.83L804.405 1561.43L804.131 1561.43L804.405 1567.83L804.405 1614.18Z"/>
<path d="M900.497 1606.18L900.497 1614.18L861.228 1614.18L861.228 1541.45L899.765 1541.45L899.765 1548.77L870.691 1548.77L870.691 1573.45L896.84 1573.45L896.84 1580.72L870.691 1580.72L870.691 1606.18L900.497 1606.18Z"/>
<path d="M916.68 1612.63L916.68 1603.72C924.177 1607.28 930.988 1609.06 937.114 1609.06C939.674 1609.06 942.127 1608.58 944.474 1607.6C946.821 1606.63 948.596 1605.22 949.8 1603.37C951.003 1601.53 951.605 1599.53 951.605 1597.36C951.605 1594.83 950.775 1592.46 949.114 1590.25C947.453 1588.04 944.352 1585.61 939.811 1582.96L935.011 1580.22L930.165 1577.43C921.662 1572.4 917.411 1566.15 917.411 1558.69C917.411 1553.2 919.316 1548.59 923.125 1544.86C926.935 1541.13 932.862 1539.26 940.908 1539.26C946.089 1539.26 951.102 1540.02 955.948 1541.54L955.948 1549.64C950.615 1547.56 945.419 1546.53 940.36 1546.53C936.337 1546.53 933.076 1547.59 930.577 1549.73C928.078 1551.86 926.828 1554.42 926.828 1557.41C926.828 1560.39 927.788 1562.87 929.708 1564.84C931.628 1566.8 934.066 1568.61 937.022 1570.25L940.68 1572.45L945.205 1575.24L949.091 1577.48C957.045 1582.35 961.022 1588.48 961.022 1595.85C961.022 1601.49 958.973 1606.32 954.874 1610.34C950.775 1614.37 944.215 1616.38 935.194 1616.38C932.329 1616.38 929.586 1616.14 926.965 1615.65C924.344 1615.16 920.916 1614.15 916.68 1612.63Z"/>
</g>
</g>
</svg>
