<?xml version="1.0" encoding="UTF-8" standalone="no"?>
<!-- Created with Vectornator (http://vectornator.io/) -->

<svg
   height="1443.24"
   stroke-miterlimit="10"
   style="clip-rule:evenodd;fill-rule:nonzero;stroke-linecap:round;stroke-linejoin:round"
   version="1.1"
   viewBox="0 0 3190.82 1443.24"
   width="3190.8201"
   xml:space="preserve"
   id="svg17"
   sodipodi:docname="logo_2.svg"
   inkscape:version="1.3 (0e150ed, 2023-07-21)"
   xmlns:inkscape="http://www.inkscape.org/namespaces/inkscape"
   xmlns:sodipodi="http://sodipodi.sourceforge.net/DTD/sodipodi-0.dtd"
   xmlns="http://www.w3.org/2000/svg"
   xmlns:svg="http://www.w3.org/2000/svg"
   xmlns:vectornator="http://vectornator.io"><sodipodi:namedview
   id="namedview17"
   pagecolor="#ffffff"
   bordercolor="#000000"
   borderopacity="0.25"
   inkscape:showpageshadow="2"
   inkscape:pageopacity="0.0"
   inkscape:pagecheckerboard="0"
   inkscape:deskcolor="#d1d1d1"
   inkscape:zoom="0.4051586"
   inkscape:cx="891.00911"
   inkscape:cy="713.30092"
   inkscape:window-width="3440"
   inkscape:window-height="1291"
   inkscape:window-x="0"
   inkscape:window-y="25"
   inkscape:window-maximized="1"
   inkscape:current-layer="svg17" />&#10;<defs
   id="defs1"><rect
     x="1406.6859"
     y="548.73816"
     width="2103.4961"
     height="1184.5776"
     id="rect17" /></defs>&#10;<g
   id="Слой-1"
   vectornator:layerName="Слой 1"
   transform="translate(-44.98853,-416.66662)">&#10;<path
   d="m 682.062,373.644 253.253,687.326 253.255,687.32 -507.948,-0.54 -507.947,-0.53 254.694,-686.79 z"
   fill="#000000"
   fill-rule="nonzero"
   opacity="1"
   stroke="none"
   vectornator:layerName="Звезда 1"
   id="path1" />&#10;<path
   d="m 681.714,622.121 198.644,521.209 198.642,521.21 -398.378,-0.41 -398.381,-0.42 199.737,-520.8 z"
   fill="#ffffff"
   fill-rule="nonzero"
   opacity="1"
   stroke="none"
   vectornator:layerName="Звезда 2"
   id="path2" />&#10;<path
   d="m 680.825,334.727 42.345,97.02 42.345,97.019 -84.893,-0.089 -84.894,-0.089 42.549,-96.93 z"
   fill="#ffffff"
   fill-rule="nonzero"
   opacity="1"
   stroke="none"
   vectornator:layerName="Звезда 3"
   id="path3" />&#10;<path
   d="M 1079,727.86 680.622,1480.31"
   fill="none"
   opacity="1"
   stroke="#000000"
   stroke-linecap="butt"
   stroke-linejoin="round"
   stroke-width="40"
   vectornator:layerName="Линия 1"
   id="path4" />&#10;<path
   d="m 929.642,873.444 c 0,-44.359 33.436,-80.319 74.678,-80.319 41.25,0 74.68,35.96 74.68,80.319 0,44.358 -33.43,80.318 -74.68,80.318 -41.242,0 -74.678,-35.96 -74.678,-80.318 z"
   fill="#000000"
   fill-rule="nonzero"
   opacity="1"
   stroke="#000000"
   stroke-linecap="butt"
   stroke-linejoin="round"
   stroke-width="40"
   vectornator:layerName="Овал 1"
   id="path5" />&#10;<path
   d="m 653.995,1480.31 c 0,-17.61 11.921,-31.88 26.627,-31.88 14.705,0 26.626,14.27 26.626,31.88 0,17.6 -11.921,31.87 -26.626,31.87 -14.706,0 -26.627,-14.27 -26.627,-31.87 z"
   fill="#000000"
   fill-rule="nonzero"
   opacity="1"
   stroke="#000000"
   stroke-linecap="butt"
   stroke-linejoin="round"
   stroke-width="40"
   vectornator:layerName="Овал 2"
   id="path6" />&#10;<path
   d="M 282.241,1486.2 1079,1480.31"
   fill="none"
   opacity="1"
   stroke="#000000"
   stroke-linecap="butt"
   stroke-linejoin="round"
   stroke-width="15"
   vectornator:layerName="Линия 2"
   id="path7" />&#10;<g
   fill="#000000"
   opacity="1"
   stroke="none"
   vectornator:layerName="Текст 1"
   id="g17">&#10;&#10;&#10;&#10;&#10;&#10;&#10;&#10;&#10;&#10;&#10;</g>&#10;</g>&#10;<text
   xml:space="preserve"
   id="text17"
   style="font-size:266.667px;line-height:normal;font-family:'.Noto Nastaliq Urdu UI';-inkscape-font-specification:'.Noto Nastaliq Urdu UI';text-decoration-color:#000000;white-space:pre;shape-inside:url(#rect17);fill:#000000;fill-opacity:1;stroke-width:1;-inkscape-stroke:none"
   transform="translate(-284.47567,-17.38462)"><tspan
     x="1406.6855"
     y="792.02666"
     id="tspan1">METRONOMES</tspan></text></svg>
