<?xml version="1.0" encoding="UTF-8" standalone="no"?>
<!-- Created with Vectornator (http://vectornator.io/) -->

<svg
   height="1443.24"
   stroke-miterlimit="10"
   style="clip-rule:evenodd;fill-rule:nonzero;stroke-linecap:round;stroke-linejoin:round"
   version="1.1"
   viewBox="0 0 3190.82 1443.24"
   width="3190.8201"
   xml:space="preserve"
   id="svg17"
   sodipodi:docname="logo_2.svg"
   inkscape:version="1.3 (0e150ed, 2023-07-21)"
   xmlns:inkscape="http://www.inkscape.org/namespaces/inkscape"
   xmlns:sodipodi="http://sodipodi.sourceforge.net/DTD/sodipodi-0.dtd"
   xmlns="http://www.w3.org/2000/svg"
   xmlns:svg="http://www.w3.org/2000/svg"
   xmlns:vectornator="http://vectornator.io"><sodipodi:namedview
   id="namedview17"
   pagecolor="#ffffff"
   bordercolor="#000000"
   borderopacity="0.25"
   inkscape:showpageshadow="2"
   inkscape:pageopacity="0.0"
   inkscape:pagecheckerboard="0"
   inkscape:deskcolor="#d1d1d1"
   inkscape:zoom="0.4051586"
   inkscape:cx="891.00911"
   inkscape:cy="713.30092"
   inkscape:window-width="3440"
   inkscape:window-height="1291"
   inkscape:window-x="0"
   inkscape:window-y="25"
   inkscape:window-maximized="1"
   inkscape:current-layer="svg17" />&#10;<defs
   id="defs1"><rect
     x="1406.6859"
     y="548.73816"
     width="2103.4961"
     height="1184.5776"
     id="rect17" /></defs>&#10;<g
   id="Слой-1"
   vectornator:layerName="Слой 1"
   transform="translate(-44.98853,-416.66662)">&#10;<path
   d="m 682.062,373.644 253.253,687.326 253.255,687.32 -507.948,-0.54 -507.947,-0.53 254.694,-686.79 z"
   fill="#000000"
   fill-rule="nonzero"
   opacity="1"
   stroke="none"
   vectornator:layerName="Звезда 1"
   id="path1" />&#10;<path
   d="m 681.714,622.121 198.644,521.209 198.642,521.21 -398.378,-0.41 -398.381,-0.42 199.737,-520.8 z"
   fill="#ffffff"
   fill-rule="nonzero"
   opacity="1"
   stroke="none"
   vectornator:layerName="Звезда 2"
   id="path2" />&#10;<path
   d="m 680.825,334.727 42.345,97.02 42.345,97.019 -84.893,-0.089 -84.894,-0.089 42.549,-96.93 z"
   fill="#ffffff"
   fill-rule="nonzero"
   opacity="1"
   stroke="none"
   vectornator:layerName="Звезда 3"
   id="path3" />&#10;<path
   d="M 1079,727.86 680.622,1480.31"
   fill="none"
   opacity="1"
   stroke="#000000"
   stroke-linecap="butt"
   stroke-linejoin="round"
   stroke-width="40"
   vectornator:layerName="Линия 1"
   id="path4" />&#10;<path
   d="m 929.642,873.444 c 0,-44.359 33.436,-80.319 74.678,-80.319 41.25,0 74.68,35.96 74.68,80.319 0,44.358 -33.43,80.318 -74.68,80.318 -41.242,0 -74.678,-35.96 -74.678,-80.318 z"
   fill="#000000"
   fill-rule="nonzero"
   opacity="1"
   stroke="#000000"
   stroke-linecap="butt"
   stroke-linejoin="round"
   stroke-width="40"
   vectornator:layerName="Овал 1"
   id="path5" />&#10;<path
   d="m 653.995,1480.31 c 0,-17.61 11.921,-31.88 26.627,-31.88 14.705,0 26.626,14.27 26.626,31.88 0,17.6 -11.921,31.87 -26.626,31.87 -14.706,0 -26.627,-14.27 -26.627,-31.87 z"
   fill="#000000"
   fill-rule="nonzero"
   opacity="1"
   stroke="#000000"
   stroke-linecap="butt"
   stroke-linejoin="round"
   stroke-width="40"
   vectornator:layerName="Овал 2"
   id="path6" />&#10;<path
   d="M 282.241,1486.2 1079,1480.31"
   fill="none"
   opacity="1"
   stroke="#000000"
   stroke-linecap="butt"
   stroke-linejoin="round"
   stroke-width="15"
   vectornator:layerName="Линия 2"
   id="path7" />&#10;<g
   fill="#000000"
   opacity="1"
   stroke="none"
   vectornator:layerName="Текст 1"
   id="g17">&#10;&#10;&#10;&#10;&#10;&#10;&#10;&#10;&#10;&#10;&#10;</g>&#10;</g>&#10;<path
   d="m 1605.3837,792.02666 h -25.7813 V 624.96917 l -53.9063,113.67201 h -15.3646 l -53.5157,-113.67201 v 167.05749 h -24.0886 V 598.14622 h 35.1563 l 51.6928,107.94284 50.0001,-107.94284 h 35.8073 z m 179.8179,0 H 1657.4671 V 598.14622 h 127.7345 v 22.91669 h -101.9532 v 53.12507 h 101.9532 v 22.91669 h -101.9532 v 72.0053 h 101.9532 z m 179.1669,-170.96375 h -69.2709 v 170.96375 h -25.7813 V 621.06291 h -69.2709 v -22.91669 h 164.3231 z m 186.4586,170.96375 h -33.4636 l -64.8438,-77.08342 h -36.3282 v 77.08342 h -25.7813 V 598.14622 h 54.297 q 17.5781,0 29.2969,2.34375 11.7187,2.21354 21.0938,8.07293 10.5468,6.64063 16.4062,16.79689 5.9896,10.02606 5.9896,25.52087 0,20.96356 -10.5469,35.15629 -10.5469,14.06252 -29.0365,21.22398 z m -60.2865,-139.32308 q 0,-8.33335 -2.9948,-14.71356 -2.8646,-6.51043 -9.6355,-10.93752 -5.5989,-3.77604 -13.2812,-5.20834 -7.6823,-1.5625 -18.099,-1.5625 h -30.3386 v 73.17717 h 26.0417 q 12.2396,0 21.3542,-2.08333 9.1146,-2.21355 15.4948,-8.07293 5.8594,-5.46876 8.5938,-12.50001 2.8646,-7.16147 2.8646,-18.09898 z m 229.8179,-32.29171 q 11.849,13.02085 18.099,31.90108 6.3802,18.88023 6.3802,42.83859 0,23.95837 -6.5104,42.96881 -6.3802,18.88023 -17.9688,31.51045 -11.9792,13.15106 -28.3854,19.79169 -16.2761,6.64064 -37.2397,6.64064 -20.4427,0 -37.2396,-6.77085 -16.6667,-6.77084 -28.3854,-19.66148 -11.7188,-12.89064 -18.099,-31.64066 -6.25,-18.75002 -6.25,-42.8386 0,-23.69794 6.25,-42.44796 6.25,-18.88024 18.2292,-32.29171 11.4583,-12.76043 28.3854,-19.53127 17.0573,-6.77085 37.1094,-6.77085 20.8334,0 37.3699,6.90105 16.6667,6.77085 28.2552,19.40107 z m -2.3437,74.73967 q 0,-37.76046 -16.9271,-58.20319 -16.9271,-20.57294 -46.224,-20.57294 -29.5574,0 -46.4845,20.57294 -16.7969,20.44273 -16.7969,58.20319 0,38.15109 17.1875,58.46362 17.1876,20.18231 46.0939,20.18231 28.9062,0 45.9636,-20.18231 17.1875,-20.31253 17.1875,-58.46362 z m 215.6253,96.87512 h -31.9011 l -91.9272,-173.43771 v 173.43771 h -24.0886 V 598.14622 h 39.974 l 83.8543,158.33352 V 598.14622 h 24.0886 z M 2729.734,620.41187 q 11.849,13.02085 18.099,31.90108 6.3802,18.88023 6.3802,42.83859 0,23.95837 -6.5104,42.96881 -6.3802,18.88023 -17.9688,31.51045 -11.9792,13.15106 -28.3854,19.79169 -16.2761,6.64064 -37.2397,6.64064 -20.4427,0 -37.2396,-6.77085 -16.6667,-6.77084 -28.3854,-19.66148 -11.7188,-12.89064 -18.099,-31.64066 -6.25,-18.75002 -6.25,-42.8386 0,-23.69794 6.25,-42.44796 6.25,-18.88024 18.2292,-32.29171 11.4583,-12.76043 28.3854,-19.53127 17.0573,-6.77085 37.1094,-6.77085 20.8334,0 37.3699,6.90105 16.6667,6.77085 28.2552,19.40107 z m -2.3437,74.73967 q 0,-37.76046 -16.9271,-58.20319 -16.9271,-20.57294 -46.2241,-20.57294 -29.5573,0 -46.4844,20.57294 -16.7969,20.44273 -16.7969,58.20319 0,38.15109 17.1875,58.46362 17.1876,20.18231 46.0938,20.18231 28.9063,0 45.9636,-20.18231 17.1876,-20.31253 17.1876,-58.46362 z m 240.3649,96.87512 h -25.7813 V 624.96917 l -53.9063,113.67201 h -15.3646 l -53.5157,-113.67201 v 167.05749 h -24.0886 V 598.14622 h 35.1563 l 51.6928,107.94284 50,-107.94284 h 35.8074 z m 179.8179,0 H 3019.8386 V 598.14622 h 127.7345 v 22.91669 h -101.9532 v 53.12507 h 101.9532 v 22.91669 h -101.9532 v 72.0053 h 101.9532 z m 181.7711,-55.33861 q 0,11.32814 -5.3386,22.39586 -5.2083,11.06773 -14.7136,18.75003 -10.4166,8.33334 -24.3489,13.02085 -13.8021,4.6875 -33.3334,4.6875 -20.9636,0 -37.7605,-3.90625 -16.6667,-3.90626 -33.9844,-11.58856 v -32.2917 h 1.8229 q 14.7136,12.23959 33.9844,18.88023 19.2709,6.64063 36.198,6.64063 23.9584,0 37.2396,-8.98439 13.4115,-8.98438 13.4115,-23.95836 0,-12.89064 -6.3802,-19.01044 -6.25,-6.1198 -19.1407,-9.50522 -9.7656,-2.60417 -21.2239,-4.29688 -11.3282,-1.69271 -24.0886,-4.29688 -25.7813,-5.46876 -38.2813,-18.61981 -12.3698,-13.28127 -12.3698,-34.50525 0,-24.34899 20.5729,-39.8438 20.573,-15.62502 52.2136,-15.62502 20.4428,0 37.5001,3.90625 17.0573,3.90626 30.2083,9.63543 v 30.46879 h -1.8229 q -11.0677,-9.37501 -29.1667,-15.49481 -17.9687,-6.25001 -36.849,-6.25001 -20.7031,0 -33.3334,8.59376 -12.5,8.59376 -12.5,22.13544 0,12.10939 6.25,19.01044 6.25,6.90105 22.0053,10.54689 8.3333,1.82292 23.6979,4.42709 15.3646,2.60417 26.0417,5.33855 21.6146,5.72917 32.5521,17.31773 10.9376,11.58855 10.9376,32.42191 z"
   id="path18"
   style="font-size:266.667px;font-family:'.Noto Nastaliq Urdu UI';-inkscape-font-specification:'.Noto Nastaliq Urdu UI';white-space:pre"
   transform="translate(-284.47567,-17.38462)"
   aria-label="METRONOMES" /></svg>
