<?xml version="1.0" encoding="UTF-8" standalone="no"?>
<!DOCTYPE svg PUBLIC "-//W3C//DTD SVG 1.1//EN" "http://www.w3.org/Graphics/SVG/1.1/DTD/svg11.dtd">
<!-- Created with Vectornator (http://vectornator.io/) -->
<svg height="100%" stroke-miterlimit="10" style="fill-rule:nonzero;clip-rule:evenodd;stroke-linecap:round;stroke-linejoin:round;" version="1.1" viewBox="0 0 3190.82 1443.24" width="100%" xml:space="preserve" xmlns="http://www.w3.org/2000/svg" xmlns:vectornator="http://vectornator.io" xmlns:xlink="http://www.w3.org/1999/xlink">
<defs/>
<g id="Слой-1" vectornator:layerName="Слой 1">
<path d="M893.786 454.751C893.786 410.392 927.222 374.432 968.464 374.432C1009.71 374.432 1043.14 410.392 1043.14 454.751C1043.14 499.109 1009.71 535.069 968.464 535.069C927.222 535.069 893.786 499.109 893.786 454.751Z" fill="#7b94ae" fill-rule="nonzero" opacity="1" stroke="#7b94ae" stroke-linecap="butt" stroke-linejoin="round" stroke-width="40" vectornator:layerName="Овал 1"/>
<path d="M618.139 58.7069L684.208 58.0892L899.459 642.277L1152.71 1329.6L644.766 1329.06L136.819 1328.53L391.513 641.737L618.139 58.7069Z" fill="#7b94ae" fill-rule="nonzero" opacity="1" stroke="none" vectornator:layerName="Звезда 1"/>
<path d="M1110.15 493.815L3101.23 493.815L3101.23 857.535L1110.15 857.535L1110.15 493.815Z" fill="#7b94ae" fill-rule="nonzero" opacity="1" stroke="none" vectornator:layerName="Прямоугольник 1"/>
<path d="M645.858 203.428L844.502 724.637L1043.14 1245.85L644.766 1245.44L246.385 1245.02L446.122 724.217L645.858 203.428Z" fill="#ffffff" fill-rule="nonzero" opacity="1" stroke="none" vectornator:layerName="Звезда 2"/>
<path d="M1043.14 309.167L644.766 1061.62" fill="none" opacity="1" stroke="#7b94ae" stroke-linecap="butt" stroke-linejoin="round" stroke-width="40" vectornator:layerName="Линия 1"/>
<path d="M618.139 1061.62C618.139 1044.01 630.06 1029.74 644.766 1029.74C659.471 1029.74 671.392 1044.01 671.392 1061.62C671.392 1079.22 659.471 1093.49 644.766 1093.49C630.06 1093.49 618.139 1079.22 618.139 1061.62Z" fill="#000000" fill-rule="nonzero" opacity="1" stroke="#7b94ae" stroke-linecap="butt" stroke-linejoin="round" stroke-width="40" vectornator:layerName="Овал 2"/>
<path d="M246.385 1067.51L1043.14 1061.62" fill="none" opacity="1" stroke="#7b94ae" stroke-linecap="butt" stroke-linejoin="round" stroke-width="15" vectornator:layerName="Линия 2"/>
</g>
<g id="Без-названия" vectornator:layerName="Без названия">
<path d="M1330.04 772.616L1304.26 772.616L1304.26 605.558L1250.35 719.23L1234.99 719.23L1181.47 605.558L1181.47 772.616L1157.38 772.616L1157.38 578.735L1192.54 578.735L1244.23 686.678L1294.23 578.735L1330.04 578.735L1330.04 772.616ZM1509.86 772.616L1382.12 772.616L1382.12 578.735L1509.86 578.735L1509.86 601.652L1407.91 601.652L1407.91 654.777L1509.86 654.777L1509.86 677.694L1407.91 677.694L1407.91 749.699L1509.86 749.699L1509.86 772.616ZM1689.03 601.652L1619.75 601.652L1619.75 772.616L1593.97 772.616L1593.97 601.652L1524.7 601.652L1524.7 578.735L1689.03 578.735L1689.03 601.652ZM1875.48 772.616L1842.02 772.616L1777.18 695.532L1740.85 695.532L1740.85 772.616L1715.07 772.616L1715.07 578.735L1769.36 578.735C1781.08 578.735 1790.85 579.516 1798.66 581.079C1806.47 582.555 1813.5 585.246 1819.75 589.152C1826.79 593.579 1832.25 599.178 1836.16 605.949C1840.15 612.633 1842.15 621.14 1842.15 631.47C1842.15 645.445 1838.63 657.164 1831.6 666.626C1824.57 676.001 1814.89 683.076 1802.57 687.85L1875.48 772.616ZM1815.2 633.292C1815.2 627.737 1814.2 622.832 1812.2 618.579C1810.29 614.239 1807.08 610.593 1802.57 607.641C1798.83 605.124 1794.41 603.388 1789.29 602.433C1784.16 601.391 1778.13 600.871 1771.19 600.871L1740.85 600.871L1740.85 674.048L1766.89 674.048C1775.05 674.048 1782.17 673.353 1788.24 671.964C1794.32 670.489 1799.49 667.798 1803.74 663.891C1807.65 660.246 1810.51 656.079 1812.33 651.391C1814.24 646.617 1815.2 640.584 1815.2 633.292ZM2045.02 601.001C2052.91 609.681 2058.95 620.315 2063.11 632.902C2067.37 645.489 2069.49 659.768 2069.49 675.74C2069.49 691.713 2067.32 706.036 2062.98 718.709C2058.73 731.296 2052.74 741.8 2045.02 750.22C2037.03 758.987 2027.57 765.584 2016.63 770.011C2005.78 774.438 1993.37 776.652 1979.39 776.652C1965.76 776.652 1953.35 774.395 1942.15 769.881C1931.04 765.367 1921.58 758.813 1913.77 750.22C1905.95 741.626 1899.92 731.079 1895.67 718.579C1891.5 706.079 1889.42 691.799 1889.42 675.74C1889.42 659.942 1891.5 645.792 1895.67 633.292C1899.83 620.706 1905.91 609.942 1913.9 601.001C1921.53 592.494 1931 585.983 1942.28 581.469C1953.65 576.956 1966.02 574.699 1979.39 574.699C1993.28 574.699 2005.74 576.999 2016.76 581.6C2027.87 586.114 2037.29 592.581 2045.02 601.001ZM2042.67 675.74C2042.67 650.567 2037.03 631.166 2025.74 617.537C2014.46 603.822 1999.05 596.964 1979.52 596.964C1959.82 596.964 1944.32 603.822 1933.04 617.537C1921.84 631.166 1916.24 650.567 1916.24 675.74C1916.24 701.174 1921.97 720.662 1933.43 734.204C1944.89 747.659 1960.25 754.386 1979.52 754.386C1998.79 754.386 2014.11 747.659 2025.48 734.204C2036.94 720.662 2042.67 701.174 2042.67 675.74ZM2258.3 772.616L2226.4 772.616L2134.47 599.178L2134.47 772.616L2110.38 772.616L2110.38 578.735L2150.35 578.735L2234.21 737.069L2234.21 578.735L2258.3 578.735L2258.3 772.616ZM2454.39 601.001C2462.29 609.681 2468.32 620.315 2472.49 632.902C2476.74 645.489 2478.87 659.768 2478.87 675.74C2478.87 691.713 2476.7 706.036 2472.36 718.709C2468.11 731.296 2462.12 741.8 2454.39 750.22C2446.4 758.987 2436.94 765.584 2426.01 770.011C2415.15 774.438 2402.74 776.652 2388.77 776.652C2375.14 776.652 2362.72 774.395 2351.53 769.881C2340.41 765.367 2330.95 758.813 2323.14 750.22C2315.33 741.626 2309.3 731.079 2305.04 718.579C2300.88 706.079 2298.79 691.799 2298.79 675.74C2298.79 659.942 2300.88 645.792 2305.04 633.292C2309.21 620.706 2315.28 609.942 2323.27 601.001C2330.91 592.494 2340.37 585.983 2351.66 581.469C2363.03 576.956 2375.4 574.699 2388.77 574.699C2402.65 574.699 2415.11 576.999 2426.14 581.6C2437.25 586.114 2446.67 592.581 2454.39 601.001ZM2452.05 675.74C2452.05 650.567 2446.4 631.166 2435.12 617.537C2423.84 603.822 2408.43 596.964 2388.9 596.964C2369.19 596.964 2353.7 603.822 2342.41 617.537C2331.21 631.166 2325.61 650.567 2325.61 675.74C2325.61 701.174 2331.34 720.662 2342.8 734.204C2354.26 747.659 2369.63 754.386 2388.9 754.386C2408.17 754.386 2423.49 747.659 2434.86 734.204C2446.32 720.662 2452.05 701.174 2452.05 675.74ZM2692.41 772.616L2666.63 772.616L2666.63 605.558L2612.72 719.23L2597.36 719.23L2543.84 605.558L2543.84 772.616L2519.76 772.616L2519.76 578.735L2554.91 578.735L2606.6 686.678L2656.6 578.735L2692.41 578.735L2692.41 772.616ZM2872.23 772.616L2744.5 772.616L2744.5 578.735L2872.23 578.735L2872.23 601.652L2770.28 601.652L2770.28 654.777L2872.23 654.777L2872.23 677.694L2770.28 677.694L2770.28 749.699L2872.23 749.699L2872.23 772.616ZM3054 717.277C3054 724.829 3052.22 732.294 3048.66 739.673C3045.19 747.051 3040.29 753.301 3033.95 758.423C3027 763.978 3018.89 768.319 3009.6 771.444C3000.4 774.569 2989.29 776.131 2976.27 776.131C2962.29 776.131 2949.7 774.829 2938.51 772.225C2927.39 769.621 2916.07 765.758 2904.52 760.636L2904.52 728.345L2906.34 728.345C2916.15 736.504 2927.48 742.798 2940.33 747.225C2953.18 751.652 2965.24 753.866 2976.53 753.866C2992.5 753.866 3004.91 750.871 3013.77 744.881C3022.71 738.892 3027.18 730.905 3027.18 720.923C3027.18 712.329 3025.05 705.992 3020.8 701.912C3016.63 697.832 3010.25 694.664 3001.66 692.407C2995.15 690.671 2988.07 689.239 2980.43 688.11C2972.88 686.982 2964.85 685.549 2956.34 683.813C2939.16 680.168 2926.4 673.961 2918.06 665.194C2909.82 656.339 2905.69 644.838 2905.69 630.688C2905.69 614.456 2912.55 601.174 2926.27 590.844C2939.98 580.428 2957.39 575.219 2978.48 575.219C2992.11 575.219 3004.61 576.522 3015.98 579.126C3027.35 581.73 3037.42 584.942 3046.19 588.761L3046.19 619.23L3044.37 619.23C3036.99 612.98 3027.26 607.815 3015.2 603.735C3003.22 599.568 2990.94 597.485 2978.35 597.485C2964.55 597.485 2953.44 600.35 2945.02 606.079C2936.68 611.808 2932.52 619.187 2932.52 628.214C2932.52 636.287 2934.6 642.624 2938.77 647.225C2942.93 651.825 2950.27 655.341 2960.77 657.772C2966.33 658.987 2974.23 660.463 2984.47 662.199C2994.71 663.935 3003.39 665.714 3010.51 667.537C3024.92 671.357 3035.77 677.129 3043.06 684.855C3050.36 692.581 3054 703.388 3054 717.277Z" fill="#000000" fill-rule="nonzero" opacity="1" stroke="none" vectornator:layerName="path"/>
</g>
</svg>
